<svg version="1.1" xmlns="http://www.w3.org/2000/svg" width="1024" height="540">
<path d="M0 0 C337.92 0 675.84 0 1024 0 C1024 178.2 1024 356.4 1024 540 C686.08 540 348.16 540 0 540 C0 361.8 0 183.6 0 0 Z " fill="#083731" transform="translate(0,0)" opacity="0.7"/>
<path d="M0 0 C8.83351155 7.42710273 13.29691364 16.89989738 16 27.9375 C16.36576754 32.23526858 16.25 36.56169492 16.25 40.875 C-7.51 40.875 -31.27 40.875 -55.75 40.875 C-51.30497349 57.33818321 -51.30497349 57.33818321 -39.75 68.375 C-30.80271359 73.12363476 -21.71724449 74.38804269 -11.74609375 72.22265625 C-5.84980009 70.31189627 -1.70642566 67.6177414 2.69140625 63.265625 C4.25 61.875 4.25 61.875 6.25 61.875 C7.63232443 63.50126404 8.96937515 65.1675002 10.25 66.875 C9.13163939 71.62803261 6.49154405 73.74868779 2.671875 76.453125 C-8.03301713 82.73793264 -20.84376897 84.6627078 -32.98046875 82.2265625 C-43.36276292 79.08366879 -52.67450887 72.98823669 -58.75 63.875 C-65.69800798 50.34855893 -67.94273362 36.61745917 -63.78515625 21.82421875 C-59.35944005 9.21510279 -52.06324419 1.21792419 -40.36328125 -4.99609375 C-27.53280808 -10.53870473 -11.10133671 -7.87896884 0 0 Z " fill="white" transform="translate(877.75,338.125)"/>
<path d="M0 0 C0.89525391 -0.020625 1.79050781 -0.04125 2.71289062 -0.0625 C13.54904713 -0.12509152 21.9456709 3.17374656 30.8125 9.25 C31.75416016 9.89388672 31.75416016 9.89388672 32.71484375 10.55078125 C40.05408494 16.19251087 46.14903817 25.10095996 47.8125 34.25 C44.58984375 34.66015625 44.58984375 34.66015625 40.8125 34.25 C38.92157657 32.00394432 37.72312287 30.22617709 36.375 27.6875 C30.46576497 17.64632859 23.8988345 12.26459689 12.8125 8.25 C9.47005394 7.31977074 9.47005394 7.31977074 5.8125 7.25 C4.78382813 7.188125 3.75515625 7.12625 2.6953125 7.0625 C-8.760307 6.66142798 -18.24271597 8.72510276 -27.09375 16.27734375 C-37.39073738 25.97879641 -43.89756473 36.96101728 -44.5234375 51.38671875 C-44.55321857 53.2367853 -44.56570288 55.08719654 -44.5625 56.9375 C-44.56088867 57.90703613 -44.55927734 58.87657227 -44.55761719 59.87548828 C-44.42516277 67.65523764 -43.27571192 74.05134573 -40.1875 81.25 C-39.91035156 81.97832031 -39.63320312 82.70664063 -39.34765625 83.45703125 C-34.40065793 95.01522547 -24.65219636 101.81709536 -13.375 106.390625 C-9.50802158 107.43319271 -5.84802089 107.55164353 -1.875 107.5 C-1.11952881 107.49250732 -0.36405762 107.48501465 0.41430664 107.47729492 C12.06935731 107.25245883 21.83481464 104.27085959 30.5625 96.1875 C39.79448109 86.33570392 42.65372327 74.2026604 44.8125 61.25 C28.9725 61.25 13.1325 61.25 -3.1875 61.25 C-3.1875 59.27 -3.1875 57.29 -3.1875 55.25 C14.9625 55.25 33.1125 55.25 51.8125 55.25 C51.8125 73.28828702 48.0735834 88.81799004 35.1953125 102.1328125 C24.04348536 112.04148514 10.8473002 115.62854869 -3.78515625 115.4609375 C-16.99548947 114.64192717 -28.29493799 108.96986807 -37.83203125 99.91796875 C-51.16711095 84.81372425 -53.54336478 66.61895947 -52.45800781 47.14013672 C-51.19184584 33.61231594 -44.14229495 21.28331383 -34.359375 12.03125 C-23.87196703 3.43006648 -13.34641576 0.07524406 0 0 Z " fill="white" transform="translate(254.1875,109.75)"/>
<path d="M0 0 C0.83877686 -0.01853027 1.67755371 -0.03706055 2.54174805 -0.05615234 C11.99324523 0.03824232 20.10292196 4.03930479 26.9375 10.5 C34.78399076 19.95654991 35.37298994 31.01381106 35.23046875 42.8203125 C35.22485977 44.17365036 35.22059584 45.5269944 35.21760559 46.88034058 C35.20625896 50.40838018 35.17688253 53.93603759 35.14349365 57.46392822 C35.11257037 61.07746209 35.09905316 64.6910589 35.08398438 68.3046875 C35.05200061 75.36994615 35.00093099 82.43494786 34.9375 89.5 C31.6375 89.5 28.3375 89.5 24.9375 89.5 C24.93163376 88.78082901 24.92576752 88.06165802 24.91972351 87.32069397 C24.86157727 80.50972307 24.78937674 73.69902686 24.70178509 66.88837528 C24.65724892 63.3877656 24.61795731 59.88726781 24.59106445 56.38647461 C24.55983683 52.35241123 24.50505599 48.31895464 24.44921875 44.28515625 C24.44282883 43.04105484 24.4364389 41.79695343 24.42985535 40.51515198 C24.27472142 31.26280049 23.18352825 22.73224324 16.9375 15.5 C10.90722416 9.89939983 3.78736812 9.80051566 -4.03027344 9.91064453 C-11.64536504 10.25733081 -17.39265695 11.80653135 -22.8828125 17.33203125 C-29.84082782 25.853079 -30.5188221 34.32805284 -30.57421875 44.96875 C-30.59216995 46.24480103 -30.61012115 47.52085205 -30.62861633 48.83557129 C-30.67341839 52.202417 -30.7058182 55.56890505 -30.73205566 58.93591309 C-30.76201356 62.38188628 -30.80849087 65.82763407 -30.85351562 69.2734375 C-30.93829095 76.01552028 -31.00670303 82.75761845 -31.0625 89.5 C-34.3625 89.5 -37.6625 89.5 -41.0625 89.5 C-41.0625 60.46 -41.0625 31.42 -41.0625 1.5 C-38.0925 1.5 -35.1225 1.5 -32.0625 1.5 C-31.7325 6.45 -31.4025 11.4 -31.0625 16.5 C-29.7425 14.52 -28.4225 12.54 -27.0625 10.5 C-19.58939205 2.13458066 -10.82318013 0.14895651 0 0 Z " fill="white" transform="translate(225.0625,330.5)"/>
<path d="M0 0 C9.47302546 6.451457 13.8628906 14.92885736 16 26 C16.37204667 30.66744285 16.35169975 35.30068717 16.29296875 39.98046875 C16.28872391 41.27447098 16.28447906 42.56847321 16.28010559 43.90168762 C16.2687786 47.30313256 16.23942033 50.70417882 16.20599365 54.10546875 C16.17502681 57.59174205 16.16154406 61.07808125 16.14648438 64.56445312 C16.11453552 71.37646344 16.06349113 78.18821246 16 85 C12.7 85 9.4 85 6 85 C5.99857498 84.28749084 5.99714996 83.57498169 5.99568176 82.84088135 C5.97773695 76.07491097 5.93578733 69.30945285 5.86790943 62.5438118 C5.83384352 59.06672048 5.80856176 55.59005895 5.80444336 52.11279297 C5.79928457 48.10072265 5.75396323 44.0899259 5.70703125 40.078125 C5.7109639 38.84950745 5.71489655 37.62088989 5.71894836 36.3550415 C5.57236135 27.54689445 4.16375716 18.82122624 -1.78434753 11.93389893 C-8.58962781 5.51661781 -16.89890517 5.39390185 -25.78515625 5.625 C-32.94765695 6.07096402 -38.35880518 9.00914819 -43.375 14.0625 C-49.72138175 22.64785445 -50.59825129 32.87175176 -50.609375 43.203125 C-50.62591125 44.4069281 -50.64244751 45.6107312 -50.65948486 46.85101318 C-50.70760443 50.65072922 -50.72925631 54.45004611 -50.75 58.25 C-50.77818969 60.84507178 -50.80812125 63.44012525 -50.83984375 66.03515625 C-50.91335366 72.35669922 -50.96520637 78.6781316 -51 85 C-53.97 85 -56.94 85 -60 85 C-60 55.96 -60 26.92 -60 -3 C-57.03 -3 -54.06 -3 -51 -3 C-50.67 1.62 -50.34 6.24 -50 11 C-49.01 9.783125 -48.02 8.56625 -47 7.3125 C-35.63570846 -5.65886307 -15.07224823 -8.5729734 0 0 Z " fill="white" transform="translate(687,335)"/>
<path d="M0 0 C3 0 6 0 9 0 C9 1 9 1 9 2 C9 34 9 38 9 42 C9 64 10 67 15 73 C20 78 30 80 39 79 C44 79 48 77 53 75  C65 67 65 46 65 45 C66 13 66 6 66 0 C69 0 72 0 75 0 C75 29 75 58 75 88 C72 88 69 88 66 88 C66 83 65 0 67 74 C64 75 63 76 62 77 C55 85 47 88 37 89 C27 90 19 88 11 81 C3 74 0 65 0 55 " fill="white" transform="translate(367,332)"/>
<path d="M0 0 C6 3 13 9 14 13 14 0 14 -4 14 -4 C18 -4 20 -4 22 -4 C22 25 22 54 22 86 C20 86 22 86 15 86 C15 75 15 0 15 67 C20 67 13 70 13 71 C6 78 -1 83 -9 84.9375 C-21 87 -33 86 -43 79 C-52 71 -57 62 -60 50 C-61 39 -61 30 -55 17 C-55 17 -55 16 -54 15 C-43 -4 -20 -10 0 0 Z M-44 13 C-53 24 -54 36 -53 44 C-50 60 -45 70 -36 75 C-28 80 -17 80 -10 78 C1 74 8 68 12 59 C17 48 17 35 13 24 C9 14 2 7 -9 3 C-22 0 -35 3 -44 13 Z " fill="white" transform="translate(435.69140625,139.58984375)"/>
<path d="M0 0 C6 3 13 9 14 13 14 0 14 -4 14 -4 C18 -4 20 -4 22 -4 C22 25 22 54 22 86 C20 86 22 86 15 86 C15 75 15 0 15 67 C20 67 13 70 13 71 C6 78 -1 83 -9 84.9375 C-21 87 -33 86 -43 79 C-52 71 -57 62 -60 50 C-61 39 -61 30 -55 17 C-55 17 -55 16 -54 15 C-43 -4 -20 -10 0 0 Z M-44 13 C-53 24 -54 36 -53 44 C-50 60 -45 70 -36 75 C-28 80 -17 80 -10 78 C1 74 8 68 12 59 C17 48 17 35 13 24 C9 14 2 7 -9 3 C-22 0 -35 3 -44 13 Z " fill="white" transform="translate(580,335)"/>
<path d="M0 0 C4.2964763 3.02344628 7.55920715 6.4419672 10.734375 10.609375 C6.109375 15.484375 6.109375 15.484375 2.734375 16.609375 C2.3940625 16.15046875 2.05375 15.6915625 1.703125 15.21875 C-3.63714833 8.45819122 -9.84369406 5.38241309 -18.265625 3.609375 C-26.61994003 2.71762227 -34.55122414 4.45878584 -41.515625 9.234375 C-48.0812139 14.60622047 -52.78115861 22.23451046 -54.265625 30.609375 C-55.29523826 43.60824235 -53.60204401 55.21930788 -45.265625 65.609375 C-37.45029895 72.48432035 -30.09265791 75.18178888 -19.71875 74.98046875 C-11.79031622 74.12843118 -5.32250084 71.29641536 -0.015625 65.296875 C0.92466875 64.0856871 1.85110128 62.86275284 2.734375 61.609375 C6.10029366 63.05191157 8.24484579 64.94202227 10.734375 67.609375 C3.05471256 77.16257827 -4.87063501 83.17993698 -17.265625 84.609375 C-29.95356085 85.65996841 -40.37003826 82.72557183 -50.265625 74.609375 C-59.69739615 66.03038605 -64.49925447 54.42165481 -65.484375 41.80859375 C-65.89732588 28.54254669 -62.19611959 15.67023711 -53.015625 5.796875 C-38.84851784 -7.21309538 -16.63487683 -10.21037268 0 0 Z " fill="white" transform="translate(789.265625,336.390625)"/>
<path d="M0 0 C10.44607863 -0.5265503 21.00029651 2.27744305 28.94140625 9.21484375 C39.91905382 20.27996262 43.18000702 31.61058833 43.14672852 46.8203125 C42.95794561 59.77106676 39.60426991 69.79317607 30.796875 79.515625 C25.73890253 84.35874554 20.57774975 87.15073809 13.90234375 89.19140625 C13.29132812 89.3821875 12.6803125 89.57296875 12.05078125 89.76953125 C1.35320865 91.87014551 -9.26889489 90.42919063 -18.52734375 84.68359375 C-28.71291594 77.31019974 -34.94837551 67.6173456 -37.09765625 55.19140625 C-38.71334567 40.41899549 -37.65488436 27.58201458 -28.78515625 15.25390625 C-22.47043183 7.8071686 -14.63294808 2.8599914 -5.16015625 0.44140625 C-3.43954602 0.30094827 -1.71919141 0.15687221 0 0 Z M-23.09765625 19.19140625 C-30.66572125 31.44976364 -32.06423992 44.70295606 -28.91015625 58.69140625 C-26.03051539 68.54351086 -20.56977098 74.80331246 -12.14453125 80.515625 C-4.58070765 84.62953669 5.41587642 84.50847014 13.65234375 82.53125 C23.22410679 78.6925742 29.53080466 71.24716749 33.87109375 62.1640625 C37.76889214 51.89625099 37.77503011 37.64951345 33.83984375 27.44140625 C29.23068891 18.26193776 22.65443019 11.8436781 13.078125 8.08203125 C-0.75828054 4.20171088 -13.91110484 8.33935411 -23.09765625 19.19140625 Z " fill="white" transform="translate(717.09765625,134.80859375)"/>
<path d="M0 0 C0.93328125 -0.01546875 1.8665625 -0.0309375 2.828125 -0.046875 C12.76645906 0.00864642 20.70944202 3.8194683 28 10.5 C39.293238 22.50770816 40.60656598 35.398946 40.13623047 51.12451172 C39.86268989 55.89431423 38.79435898 60.09369105 37 64.5 C36.6596875 65.35722656 36.319375 66.21445313 35.96875 67.09765625 C30.74123187 78.80659045 22.24972145 84.23124244 10.6875 88.8125 C-1.85785689 91.15146484 -12.90969431 89.14981951 -23.61328125 82.27734375 C-32.70137096 75.50961737 -36.72187318 67.02460357 -39.60546875 56.234375 C-41.78443103 41.13265622 -40.78889091 27.19172363 -31.6875 14.5625 C-23.1484392 4.49267885 -13.12746367 -0.21758227 0 0 Z M-24.7265625 17.421875 C-33.38575829 28.42715832 -34.09986976 40.65842663 -32.7265625 54.1953125 C-30.99279778 63.32211169 -26.48825194 71.89092916 -19 77.5 C-9.98267707 83.36274791 -0.8411904 83.61681123 9.60546875 82.12890625 C17.20069345 80.17968929 23.38889139 74.39836076 27.671875 68.00390625 C33.68976908 56.65840593 35.16509533 42.5220326 31.875 30.0625 C28.67524813 21.16599364 23.0203361 13.91436023 14.7890625 9.24609375 C0.90312976 2.79744861 -14.60652619 6.1570382 -24.7265625 17.421875 Z " fill="white" transform="translate(816,135.5)"/>
<path d="M0 0 C6.73144272 4.28576284 11.30442465 10.51021796 14 18 C14.495 22.95 14.495 22.95 15 28 C-5.46 28 -25.92 28 -47 28 C-45.89421588 18.04794296 -43.69385325 10.03617772 -36.25 3 C-25.10871626 -5.64665095 -12.4753892 -6.37041151 0 0 Z " fill="#093631" transform="translate(869,343)"/>
<path d="M0 0 C4.93992566 4.0571898 8.12243169 8.9255143 10 15 C10.1875 18.9375 10.1875 18.9375 10 22 C7.69 22 5.38 22 3 22 C2.92523437 21.43152344 2.85046875 20.86304688 2.7734375 20.27734375 C1.73870155 14.20080615 -0.18344361 9.97262984 -5 6 C-11.72257725 1.91091099 -18.35106862 2.26216096 -26 3 C-30.27599511 4.18884169 -33.07403057 6.25922445 -36.5 9 C-38.88388259 13.76776518 -38.77115838 18.77557563 -38 24 C-36.55263214 28.11027409 -34.29421378 29.60061433 -30.578125 31.55859375 C-23.79684784 34.70915444 -16.69854034 36.83767637 -9.5703125 39.04882812 C-0.83013813 41.84236487 5.16806372 44.65938601 10.0859375 52.796875 C12.17631559 57.8352222 11.76949636 64.11195353 10.3828125 69.31640625 C7.64870798 75.49838594 2.79012012 80.14442036 -3.25 83.1015625 C-13.01800393 86.53964283 -23.99269333 86.31610839 -33.52734375 82.328125 C-40.17835856 78.75569998 -45.02578273 73.93984029 -48 67 C-48.25 63.0625 -48.25 63.0625 -48 60 C-45.69 60 -43.38 60 -41 60 C-40.84144531 60.59167969 -40.68289063 61.18335938 -40.51953125 61.79296875 C-38.95856011 67.07957266 -37.49699869 70.52504647 -33 74 C-27.90322858 76.58604658 -23.74628918 77.47407395 -18 77.375 C-17.32710937 77.38660156 -16.65421875 77.39820313 -15.9609375 77.41015625 C-9.96050226 77.37540469 -5.31760151 75.94177424 -0.6875 72.0625 C2.76288132 67.84536727 3.39029974 64.52861497 3.25 59.1796875 C2.76422828 54.94436531 0.83969963 52.75265815 -2.24926758 49.98388672 C-5.14169596 47.89780586 -7.40343197 47.01506184 -10.82421875 46.0703125 C-11.93603516 45.74933594 -13.04785156 45.42835938 -14.19335938 45.09765625 C-16.50264252 44.45482617 -18.81252973 43.81416177 -21.12304688 43.17578125 C-31.50772467 40.17110791 -40.69603769 36.53193405 -46.25 26.8125 C-48.25240787 19.30347049 -47.4016416 13.03528208 -43.60546875 6.26171875 C-33.51400964 -7.95471635 -14.01729841 -7.65588594 0 0 Z " fill="white" transform="translate(971,140)"/>
<path d="M0 0 C1.3295874 0.00858032 1.3295874 0.00858032 2.68603516 0.01733398 C10.54683672 0.23211394 16.09733718 1.79686334 22.00390625 7.14453125 C26.28360478 11.71298053 29.02901605 16.59446091 29.375 22.9375 C29.313125 23.783125 29.25125 24.62875 29.1875 25.5 C26.8775 25.5 24.5675 25.5 22.1875 25.5 C22.02894531 24.91992188 21.87039063 24.33984375 21.70703125 23.7421875 C19.66557529 16.90725761 17.45719973 12.63241287 11.3125 8.625 C4.60368328 6.18275532 -3.96030258 6.22468124 -10.6796875 8.44921875 C-14.89078664 10.63760961 -18.26692219 12.86326656 -19.8125 17.5 C-20.32642971 22.00619527 -20.34043455 26.01518407 -18.8125 30.3125 C-12.21253989 37.53120637 -2.85151091 39.66050844 6.1875 42.5 C15.6721554 45.48218993 23.10162133 47.96429342 29.125 56.125 C31.28955196 63.00063562 31.42639301 69.94844187 28.0625 76.4375 C24.02101003 82.73311677 18.29345732 87.24328417 10.91796875 89.05859375 C-0.79799138 90.95259017 -11.2348819 89.41104771 -21.1875 82.875 C-25.54078304 79.35475261 -28.07214078 74.77964745 -29.8125 69.5 C-29.9375 66.69140625 -29.9375 66.69140625 -29.8125 64.5 C-27.5025 64.5 -25.1925 64.5 -22.8125 64.5 C-22.4 65.716875 -21.9875 66.93375 -21.5625 68.1875 C-19.51946136 73.5012748 -17.18819164 77.01262331 -12.125 79.8125 C-4.67104265 82.83370531 5.28549315 83.14567373 12.921875 80.58203125 C17.15805736 78.12154187 20.15621537 74.98575356 22.1875 70.5 C23.06770194 65.36129722 22.86325608 61.71636094 20.3125 57.125 C15.46410291 52.36958587 8.71587237 50.93021145 2.37109375 49.09765625 C1.5004126 48.84435547 0.62973145 48.59105469 -0.26733398 48.33007812 C-2.00905805 47.82939416 -3.75460407 47.34176609 -5.50415039 46.86914062 C-12.70080312 44.83120015 -19.40373675 41.85460895 -24.25 35.9375 C-24.72308594 35.37933594 -25.19617188 34.82117188 -25.68359375 34.24609375 C-28.96650629 29.1683709 -28.46535889 22.27928494 -27.8125 16.5 C-25.22662818 9.68979449 -20.08049278 5.20233845 -13.73046875 1.89453125 C-9.21752854 0.02778272 -4.8321461 -0.03595211 0 0 Z " fill="white" transform="translate(507.8125,135.5)"/>
<path d="M0 0 C1.3295874 0.00858032 1.3295874 0.00858032 2.68603516 0.01733398 C10.54683672 0.23211394 16.09733718 1.79686334 22.00390625 7.14453125 C26.28360478 11.71298053 29.02901605 16.59446091 29.375 22.9375 C29.313125 23.783125 29.25125 24.62875 29.1875 25.5 C26.8775 25.5 24.5675 25.5 22.1875 25.5 C22.02894531 24.91992188 21.87039063 24.33984375 21.70703125 23.7421875 C19.66557529 16.90725761 17.45719973 12.63241287 11.3125 8.625 C4.60368328 6.18275532 -3.96030258 6.22468124 -10.6796875 8.44921875 C-14.89078664 10.63760961 -18.26692219 12.86326656 -19.8125 17.5 C-20.32642971 22.00619527 -20.34043455 26.01518407 -18.8125 30.3125 C-12.21253989 37.53120637 -2.85151091 39.66050844 6.1875 42.5 C15.6721554 45.48218993 23.10162133 47.96429342 29.125 56.125 C31.28955196 63.00063562 31.42639301 69.94844187 28.0625 76.4375 C24.02101003 82.73311677 18.29345732 87.24328417 10.91796875 89.05859375 C-0.79799138 90.95259017 -11.2348819 89.41104771 -21.1875 82.875 C-25.54078304 79.35475261 -28.07214078 74.77964745 -29.8125 69.5 C-29.9375 66.69140625 -29.9375 66.69140625 -29.8125 64.5 C-27.5025 64.5 -25.1925 64.5 -22.8125 64.5 C-22.4 65.716875 -21.9875 66.93375 -21.5625 68.1875 C-19.51946136 73.5012748 -17.18819164 77.01262331 -12.125 79.8125 C-4.67104265 82.83370531 5.28549315 83.14567373 12.921875 80.58203125 C17.15805736 78.12154187 20.15621537 74.98575356 22.1875 70.5 C23.06770194 65.36129722 22.86325608 61.71636094 20.3125 57.125 C15.46410291 52.36958587 8.71587237 50.93021145 2.37109375 49.09765625 C1.5004126 48.84435547 0.62973145 48.59105469 -0.26733398 48.33007812 C-2.00905805 47.82939416 -3.75460407 47.34176609 -5.50415039 46.86914062 C-12.70080312 44.83120015 -19.40373675 41.85460895 -24.25 35.9375 C-24.72308594 35.37933594 -25.19617188 34.82117188 -25.68359375 34.24609375 C-28.96650629 29.1683709 -28.46535889 22.27928494 -27.8125 16.5 C-25.22662818 9.68979449 -20.08049278 5.20233845 -13.73046875 1.89453125 C-9.21752854 0.02778272 -4.8321461 -0.03595211 0 0 Z " fill="white" transform="translate(584.8125,135.5)"/>
<path d="M0 0 C1.3295874 0.00858032 1.3295874 0.00858032 2.68603516 0.01733398 C10.54683672 0.23211394 16.09733718 1.79686334 22.00390625 7.14453125 C26.28360478 11.71298053 29.02901605 16.59446091 29.375 22.9375 C29.313125 23.783125 29.25125 24.62875 29.1875 25.5 C26.8775 25.5 24.5675 25.5 22.1875 25.5 C22.02894531 24.91992188 21.87039063 24.33984375 21.70703125 23.7421875 C19.66557529 16.90725761 17.45719973 12.63241287 11.3125 8.625 C4.60368328 6.18275532 -3.96030258 6.22468124 -10.6796875 8.44921875 C-14.89078664 10.63760961 -18.26692219 12.86326656 -19.8125 17.5 C-20.32642971 22.00619527 -20.34043455 26.01518407 -18.8125 30.3125 C-12.21253989 37.53120637 -2.85151091 39.66050844 6.1875 42.5 C15.6721554 45.48218993 23.10162133 47.96429342 29.125 56.125 C31.28955196 63.00063562 31.42639301 69.94844187 28.0625 76.4375 C24.02101003 82.73311677 18.29345732 87.24328417 10.91796875 89.05859375 C-0.79799138 90.95259017 -11.2348819 89.41104771 -21.1875 82.875 C-25.54078304 79.35475261 -28.07214078 74.77964745 -29.8125 69.5 C-29.9375 66.69140625 -29.9375 66.69140625 -29.8125 64.5 C-27.5025 64.5 -25.1925 64.5 -22.8125 64.5 C-22.4 65.716875 -21.9875 66.93375 -21.5625 68.1875 C-19.51946136 73.5012748 -17.18819164 77.01262331 -12.125 79.8125 C-4.67104265 82.83370531 5.28549315 83.14567373 12.921875 80.58203125 C17.15805736 78.12154187 20.15621537 74.98575356 22.1875 70.5 C23.06770194 65.36129722 22.86325608 61.71636094 20.3125 57.125 C15.46410291 52.36958587 8.71587237 50.93021145 2.37109375 49.09765625 C1.5004126 48.84435547 0.62973145 48.59105469 -0.26733398 48.33007812 C-2.00905805 47.82939416 -3.75460407 47.34176609 -5.50415039 46.86914062 C-12.70080312 44.83120015 -19.40373675 41.85460895 -24.25 35.9375 C-24.72308594 35.37933594 -25.19617188 34.82117188 -25.68359375 34.24609375 C-28.96650629 29.1683709 -28.46535889 22.27928494 -27.8125 16.5 C-25.22662818 9.68979449 -20.08049278 5.20233845 -13.73046875 1.89453125 C-9.21752854 0.02778272 -4.8321461 -0.03595211 0 0 Z " fill="white" transform="translate(314,330.5)"/>
<path d="M0 0 C3.3 0 6.6 0 10 0 C10 38.61 10 77.22 10 117 C6.7 117 3.4 117 0 117 C0 78.39 0 39.78 0 0 Z " fill="white" transform="translate(141,303)"/>
<path d="M0 0 C2.31 0 4.62 0 7 0 C7 6.93 7 13.86 7 21 C14.92 21 22.84 21 31 21 C31 22.98 31 24.96 31 27 C23.08 27 15.16 27 7 27 C7.06304921 35.22391574 7.13856967 43.44743226 7.23571491 51.6710062 C7.28033763 55.49004038 7.31961112 59.30896988 7.34643555 63.12817383 C7.37255001 66.81773823 7.41300871 70.50689803 7.46318626 74.19621086 C7.47980024 75.59987268 7.49134847 77.00360439 7.49761391 78.40735054 C7.34689497 89.98385847 7.34689497 89.98385847 12.640625 99.89453125 C16.25569559 101.58834744 19.80132677 101.57290335 23.75 101.6875 C24.54277344 101.72166016 25.33554687 101.75582031 26.15234375 101.79101562 C28.10107504 101.87319104 30.05051362 101.93828045 32 102 C32 103.98 32 105.96 32 108 C28.79197767 108.11698258 25.58450975 108.18750607 22.375 108.25 C21.47136719 108.28351563 20.56773437 108.31703125 19.63671875 108.3515625 C13.87013145 108.43574626 10.55623629 107.89922416 6 104 C0.99599006 98.71798951 -0.25490974 93.51180206 -0.22705078 86.35205078 C-0.22682419 84.40070724 -0.22682419 84.40070724 -0.22659302 82.40994263 C-0.21638202 81.00506433 -0.20595007 79.60018763 -0.1953125 78.1953125 C-0.19157846 76.74657385 -0.18873333 75.29783266 -0.18673706 73.84909058 C-0.17913136 70.0514824 -0.15950952 66.25402922 -0.1373291 62.45648193 C-0.11680438 58.57517595 -0.10772122 54.69384471 -0.09765625 50.8125 C-0.07626043 43.20825477 -0.04110362 35.60416892 0 28 C-3.96 28 -7.92 28 -12 28 C-12 25.69 -12 23.38 -12 21 C-8.04 21 -4.08 21 0 21 C0 14.07 0 7.14 0 0 Z " fill="white" transform="translate(879,115)"/>
<path d="M0 0 C0 2.64 0 5.28 0 8 C-1.051875 8.03867188 -1.051875 8.03867188 -2.125 8.078125 C-10.23466209 8.56294176 -15.80724147 9.95236685 -21.75 15.625 C-27.95933021 24.04799951 -28.59946907 32.9362131 -28.609375 43.1015625 C-28.62591125 44.41917572 -28.64244751 45.73678894 -28.65948486 47.09432983 C-28.7028016 50.5630183 -28.72307695 54.03145565 -28.73822021 57.50036621 C-28.7579217 61.05377843 -28.79987597 64.60692443 -28.83984375 68.16015625 C-28.91475773 75.10666959 -28.96528265 82.0531724 -29 89 C-31.64 89 -34.28 89 -37 89 C-37 59.96 -37 30.92 -37 1 C-34.69 1 -32.38 1 -30 1 C-29.67 6.28 -29.34 11.56 -29 17 C-28.319375 15.80375 -27.63875 14.6075 -26.9375 13.375 C-23.00581471 7.1351062 -18.18234746 2.82069885 -11.1328125 0.45703125 C-7.42561129 -0.33736901 -3.76722388 -0.23545149 0 0 Z " fill="white" transform="translate(670,135)"/>
<path d="M0 0 C0 2.64 0 5.28 0 8 C-1.051875 8.03867188 -1.051875 8.03867188 -2.125 8.078125 C-10.23466209 8.56294176 -15.80724147 9.95236685 -21.75 15.625 C-27.95933021 24.04799951 -28.59946907 32.9362131 -28.609375 43.1015625 C-28.62591125 44.41917572 -28.64244751 45.73678894 -28.65948486 47.09432983 C-28.7028016 50.5630183 -28.72307695 54.03145565 -28.73822021 57.50036621 C-28.7579217 61.05377843 -28.79987597 64.60692443 -28.83984375 68.16015625 C-28.91475773 75.10666959 -28.96528265 82.0531724 -29 89 C-31.64 89 -34.28 89 -37 89 C-37 59.96 -37 30.92 -37 1 C-34.69 1 -32.38 1 -30 1 C-29.67 6.28 -29.34 11.56 -29 17 C-28.319375 15.80375 -27.63875 14.6075 -26.9375 13.375 C-23.00581471 7.1351062 -18.18234746 2.82069885 -11.1328125 0.45703125 C-7.42561129 -0.33736901 -3.76722388 -0.23545149 0 0 Z " fill="white" transform="translate(510,330)"/>
<path d="M0 0 C0 2.64 0 5.28 0 8 C-1.051875 8.03867188 -1.051875 8.03867188 -2.125 8.078125 C-10.23466209 8.56294176 -15.80724147 9.95236685 -21.75 15.625 C-27.95933021 24.04799951 -28.59946907 32.9362131 -28.609375 43.1015625 C-28.62591125 44.41917572 -28.64244751 45.73678894 -28.65948486 47.09432983 C-28.7028016 50.5630183 -28.72307695 54.03145565 -28.73822021 57.50036621 C-28.7579217 61.05377843 -28.79987597 64.60692443 -28.83984375 68.16015625 C-28.91475773 75.10666959 -28.96528265 82.0531724 -29 89 C-31.64 89 -34.28 89 -37 89 C-37 59.96 -37 30.92 -37 1 C-34.69 1 -32.38 1 -30 1 C-29.67 6.28 -29.34 11.56 -29 17 C-28.319375 15.80375 -27.63875 14.6075 -26.9375 13.375 C-23.00581471 7.1351062 -18.18234746 2.82069885 -11.1328125 0.45703125 C-7.42561129 -0.33736901 -3.76722388 -0.23545149 0 0 Z " fill="white" transform="translate(365,135)"/>
<g id="logo-base" transform="translate(30,100) scale(0.35)">
  <path d="M110.6 32.017c-17.38.147-42.175.293-55.1.325L32 32.4v128.8h116.992l-7.79-7.798-7.791-7.798-42.805-.102L47.8 145.4V48.2l31.8-.242c17.49-.133 42.019-.268 54.508-.3l22.709-.058-.709-7.9.492-7.9-7.2-.025c-3.96-.014-21.42.095-38.8.242" fill="white"/>
  <path d="M205.875 81.058c-.151.151-.273 25.76-.27 56.909l.005 56.633 7.522 7.5c4.136 4.125 7.645 7.5 7.796 7.5s.229-28.935.173-64.3L221 81l-7.425-.109c-4.083-.059-7.548.016-7.7.167" fill="white"/>
  <path d="M122.407 89.1l-22.192.107 7.788 7.796 7.789 7.797h14.461c12.818 0 14.489.072 14.704.633.134.348.243 6.963.243 14.7V134.2l7.8 7.79 7.8 7.791V89.324l-5.7-.26c-3.135-.144-6.78-.218-8.1-.166s-12.387.143-24.593.202" fill="white"/>
  <path d="M262.267 124.267c-.147.146-.267 28.705-.267 63.463v63.197l7.57 7.536c4.163 4.146 7.673 7.537 7.8 7.537s.23-31.95.23-71v-71h-7.533c-4.144 0-7.654.12-7.8.267" fill="white"/>
  <path d="M318.4 237.901v69.501l26.701 26.7c14.686 14.684 26.915 26.698 27.176 26.698.354 0 .484-2.72.51-10.675l.035-10.676-19.211-19.238-19.211-19.238V168.4h-16z" fill="white"/>
  <path d="M54.2 183.065a9425 9425 0 0 1 25.809 25.099 15929 15929 0 0 0 20.809 20.227c12.684 12.305 16.203 15.731 35.391 34.46a5001 5001 0 0 0 15 14.574 6923 6923 0 0 1 28.6 27.822c10.486 10.251 20.813 20.283 24.8 24.093l3.2 3.057 112.383.003-7.792-7.8-7.792-7.8h-90.344l-5.432-5.325a5833 5833 0 0 0-19.967-19.478c-.989-.923-5.405-5.215-9.813-9.538a6114 6114 0 0 0-20.8-20.25 11350 11350 0 0 1-19.586-19.021c-21.963-21.416-30.956-30.166-43.583-42.41L71.8 178.018l-22.8.007z" fill="white"/>
</g>
</svg>
